<svg width="72" height="72" viewBox="0 0 72 72" fill="none" xmlns="http://www.w3.org/2000/svg">
<path d="M63 63.0001C54 63.0001 42 60.0001 42 39.0001V15.0001C42 11.2501 44.268 8.9491 48 9.0001H60C63.75 9.0001 66 11.2501 66 14.9161V33.0001C66 36.7501 63.75 39.0001 60 39.0001C57 39.0001 57 39.0001 57 42.0001V45.0001C57 48.0001 60 51.0001 63 51.0001C66 51.0001 66 51.0241 66 54.0931V60.0001C66 63.0001 66 63.0001 63 63.0001Z" fill="white" fill-opacity="0.4"/>
<path d="M27 63.0001C18 63.0001 6 60.0001 6 39.0001V15.0001C6 11.2501 8.271 8.9491 12 9.0001H24C27.75 9.0001 30 11.2501 30 14.9161V33.0001C30 36.7501 27.75 39.0001 24 39.0001H21.75C21.75 45.7501 21 51.0001 30 51.0001V60.0001C30 63.0001 30 63.0001 27 63.0001Z" fill="white" fill-opacity="0.4"/>
</svg>
